{
    "asset": {
        "copyright": "2021 (c) Adobe Inc.",
        "generator": "Adobe Substance 3D Stager - 67fda7961d26c28a731190f8385261e94aa65901",
        "version": "2.0"
    },
    "accessors": [
        {
            "bufferView": 0,
            "componentType": 5126,
            "count": 2426,
            "type": "VEC3",
            "max": [
                0.11801574379205704,
                0.5387107133865356,
                0.11801551282405853
            ],
            "min": [
                -0.11801543831825257,
                2.8967855314476767e-7,
                -0.11801551282405853
            ]
        },
        {
            "bufferView": 1,
            "componentType": 5126,
            "count": 2426,
            "type": "VEC3"
        },
        {
            "bufferView": 2,
            "componentType": 5126,
            "count": 2426,
            "type": "VEC4"
        },
        {
            "bufferView": 3,
            "componentType": 5126,
            "count": 2426,
            "type": "VEC2"
        },
        {
            "bufferView": 4,
            "componentType": 5125,
            "count": 13428,
            "type": "SCALAR",
            "max": [
                2425.0
            ],
            "min": [
                0.0
            ]
        }
    ],
    "bufferViews": [
        {
            "buffer": 0,
            "byteOffset": 0,
            "byteLength": 29112,
            "target": 34962
        },
        {
            "buffer": 0,
            "byteOffset": 29112,
            "byteLength": 29112,
            "target": 34962
        },
        {
            "buffer": 0,
            "byteOffset": 58224,
            "byteLength": 38816,
            "target": 34962
        },
        {
            "buffer": 0,
            "byteOffset": 97040,
            "byteLength": 19408,
            "target": 34962
        },
        {
            "buffer": 0,
            "byteOffset": 116448,
            "byteLength": 53712,
            "target": 34963
        }
    ],
    "buffers": [
        {
            "byteLength": 170160,
            "uri": "화병_블루_패턴_binary.bin"
        }
    ],
    "cameras": [
        {
            "perspective": {
                "znear": 0.000012674860954575707,
                "yfov": 0.527414858341217,
                "zfar": 2.0,
                "aspectRatio": 1.3333333730697632
            },
            "type": "perspective",
            "name": "working_cam"
        },
        {
            "perspective": {
                "znear": 0.000012674860954575707,
                "yfov": 0.4578222930431366,
                "zfar": 2.0,
                "aspectRatio": 1.3333333730697632
            },
            "type": "perspective",
            "name": "render_camera_n3d"
        }
    ],
    "images": [
        {
            "name": "base_color_image_texture",
            "uri": "화병_블루_패턴_images/base_color_image_texture.jpg",
            "mimeType": "image/jpeg"
        },
        {
            "name": "roughness_image_texture",
            "uri": "화병_블루_패턴_images/roughness_image_texture.png",
            "mimeType": "image/png"
        },
        {
            "name": "normal_image_texture",
            "uri": "화병_블루_패턴_images/normal_image_texture.png",
            "mimeType": "image/png"
        }
    ],
    "materials": [
        {
            "pbrMetallicRoughness": {
                "baseColorTexture": {
                    "index": 0
                },
                "metallicFactor": 0.0,
                "metallicRoughnessTexture": {
                    "index": 1
                }
            },
            "normalTexture": {
                "index": 2
            },
            "name": "St Cecilia Granite",
            "doubleSided": true
        }
    ],
    "meshes": [
        {
            "name": "medium_vase_bottle_mesh",
            "primitives": [
                {
                    "attributes": {
                        "POSITION": 0,
                        "NORMAL": 1,
                        "TANGENT": 2,
                        "TEXCOORD_0": 3
                    },
                    "indices": 4,
                    "material": 0
                }
            ]
        }
    ],
    "nodes": [
        {
            "translation": [
                1.243362545967102,
                1.365452527999878,
                1.5046786069869996
            ],
            "rotation": [
                -0.24030551314353944,
                0.31157001852989199,
                0.08176547288894654,
                0.9156919717788696
            ],
            "camera": 0,
            "name": "working_cam_n3d"
        },
        {
            "translation": [
                0.4999999403953552,
                0.29999998211860659,
                0.5
            ],
            "rotation": [
                -0.12059047818183899,
                0.379409521818161,
                0.04995020478963852,
                0.9159756302833557
            ],
            "scale": [
                1.0000001192092896,
                1.0,
                0.9999999403953552
            ],
            "camera": 1,
            "name": "render_camera_n3d"
        },
        {
            "mesh": 0,
            "name": "medium_vase_bottle_mesh"
        }
    ],
    "samplers": [
        {}
    ],
    "scenes": [
        {
            "nodes": [
                1,
                2
            ],
            "name": "scene"
        }
    ],
    "textures": [
        {
            "name": "base_color_image_texture",
            "sampler": 0,
            "source": 0
        },
        {
            "name": "roughness_image_texture",
            "sampler": 0,
            "source": 1
        },
        {
            "name": "normal_image_texture",
            "sampler": 0,
            "source": 2
        }
    ],
    "scene": 0
}