{
    "asset": {
        "copyright": "2020 (c) Adobe Inc.",
        "generator": "Adobe Dimension - 695fff5264e3b00eaca24d3119e0b5e4c864ae29",
        "version": "2.0"
    },
    "accessors": [
        {
            "bufferView": 0,
            "componentType": 5126,
            "count": 108344,
            "type": "VEC3",
            "max": [
                0.8640586733818054,
                0.09822775423526764,
                1.2901055812835694
            ],
            "min": [
                -0.8640586733818054,
                0.0,
                -1.2901055812835694
            ]
        },
        {
            "bufferView": 1,
            "componentType": 5126,
            "count": 108344,
            "type": "VEC3"
        },
        {
            "bufferView": 2,
            "componentType": 5126,
            "count": 108344,
            "type": "VEC2"
        },
        {
            "bufferView": 3,
            "componentType": 5125,
            "count": 162504,
            "type": "SCALAR",
            "max": [
                108343.0
            ],
            "min": [
                0.0
            ]
        }
    ],
    "bufferViews": [
        {
            "buffer": 0,
            "byteOffset": 0,
            "byteLength": 1300128,
            "target": 34962
        },
        {
            "buffer": 0,
            "byteOffset": 1300128,
            "byteLength": 1300128,
            "target": 34962
        },
        {
            "buffer": 0,
            "byteOffset": 2600256,
            "byteLength": 866752,
            "target": 34962
        },
        {
            "buffer": 0,
            "byteOffset": 3467008,
            "byteLength": 650016,
            "target": 34963
        }
    ],
    "buffers": [
        {
            "byteLength": 4117024,
            "uri": "블랙_스트라이프 카펫_binary.bin"
        }
    ],
    "cameras": [
        {
            "perspective": {
                "znear": 0.00006214025052031502,
                "yfov": 0.6024156808853149,
                "zfar": 3.4177138805389406,
                "aspectRatio": 1.3333333730697632
            },
            "type": "perspective",
            "name": "render_camera"
        }
    ],
    "images": [
        {
            "name": "roughness_image_texture",
            "uri": "블랙_스트라이프 카펫_images/roughness_image_texture.png",
            "mimeType": "image/png"
        },
        {
            "name": "normal_image_texture",
            "uri": "블랙_스트라이프 카펫_images/normal_image_texture.png",
            "mimeType": "image/png"
        }
    ],
    "materials": [
        {
            "pbrMetallicRoughness": {
                "baseColorFactor": [
                    0.023153364658355714,
                    0.023153364658355714,
                    0.023153364658355714,
                    1.0
                ],
                "metallicFactor": 0.0,
                "metallicRoughnessTexture": {
                    "index": 0
                }
            },
            "normalTexture": {
                "index": 1
            },
            "name": "줄무늬 광택 용지",
            "doubleSided": true
        }
    ],
    "meshes": [
        {
            "name": "-EB-B9-84-EC-B9-98 -ED-83-80-EC-9B-94",
            "primitives": [
                {
                    "attributes": {
                        "POSITION": 0,
                        "NORMAL": 1,
                        "TEXCOORD_0": 2
                    },
                    "indices": 3,
                    "material": 0
                }
            ]
        }
    ],
    "nodes": [
        {
            "translation": [
                0.5,
                0.29999998211860659,
                0.5
            ],
            "rotation": [
                -0.12059047073125839,
                0.379409521818161,
                0.04995020851492882,
                0.9159756302833557
            ],
            "scale": [
                1.0,
                1.0,
                0.9999999403953552
            ],
            "camera": 0,
            "name": "render_camera_n3d"
        },
        {
            "mesh": 0,
            "name": "비치 타월"
        }
    ],
    "samplers": [
        {},
        {}
    ],
    "scenes": [
        {
            "nodes": [
                0,
                1
            ],
            "name": "scene"
        }
    ],
    "textures": [
        {
            "name": "roughness_image_texture",
            "sampler": 0,
            "source": 0
        },
        {
            "name": "normal_image_texture",
            "sampler": 1,
            "source": 1
        }
    ],
    "scene": 0
}