{
  "accessors": [
    {
      "bufferView": 2,
      "componentType": 5126,
      "count": 18,
      "max": [
        0.9939000010490417,
        0.5,
        0.05000000074505806
      ],
      "min": [
        0.49390000104904175,
        -0.5,
        -0.05000000074505806
      ],
      "type": "VEC3"
    },
    {
      "bufferView": 2,
      "byteOffset": 216,
      "componentType": 5126,
      "count": 18,
      "max": [
        0.7075066566467285,
        0.7075066566467285,
        1.0
      ],
      "min": [
        -1.0,
        -0.706706702709198,
        -1.0
      ],
      "type": "VEC3"
    },
    {
      "bufferView": 1,
      "componentType": 5126,
      "count": 18,
      "max": [
        0.9315495491027832,
        0.9999408721923828
      ],
      "min": [
        0.00013053417205810547,
        0.00024072968517430127
      ],
      "type": "VEC2"
    },
    {
      "bufferView": 1,
      "byteOffset": 144,
      "componentType": 5126,
      "count": 18,
      "max": [
        0.9315495491027832,
        0.9999408721923828
      ],
      "min": [
        0.00013053417205810547,
        0.00024072968517430127
      ],
      "type": "VEC2"
    },
    {
      "bufferView": 1,
      "byteOffset": 288,
      "componentType": 5126,
      "count": 18,
      "max": [
        0.9315495491027832,
        0.9999408721923828
      ],
      "min": [
        0.00013053417205810547,
        0.00024072968517430127
      ],
      "type": "VEC2"
    },
    {
      "bufferView": 0,
      "componentType": 5125,
      "count": 24,
      "type": "SCALAR"
    },
    {
      "bufferView": 2,
      "byteOffset": 432,
      "componentType": 5126,
      "count": 28,
      "max": [
        0.5,
        0.25,
        0.05000000074505806
      ],
      "min": [
        -0.5,
        -0.25,
        -0.05000000074505806
      ],
      "type": "VEC3"
    },
    {
      "bufferView": 2,
      "byteOffset": 768,
      "componentType": 5126,
      "count": 28,
      "max": [
        1.0,
        1.0,
        1.0
      ],
      "min": [
        -1.0,
        -1.0,
        -1.0
      ],
      "type": "VEC3"
    },
    {
      "bufferView": 1,
      "byteOffset": 432,
      "componentType": 5126,
      "count": 28,
      "max": [
        0.9999387264251709,
        0.48606371879577637
      ],
      "min": [
        0.00011086463928222656,
        0.00015522539615631104
      ],
      "type": "VEC2"
    },
    {
      "bufferView": 1,
      "byteOffset": 656,
      "componentType": 5126,
      "count": 28,
      "max": [
        0.9999387264251709,
        0.48606371879577637
      ],
      "min": [
        0.00011086463928222656,
        0.00015522539615631104
      ],
      "type": "VEC2"
    },
    {
      "bufferView": 1,
      "byteOffset": 880,
      "componentType": 5126,
      "count": 28,
      "max": [
        0.9999387264251709,
        0.48606371879577637
      ],
      "min": [
        0.00011086463928222656,
        0.00015522539615631104
      ],
      "type": "VEC2"
    },
    {
      "bufferView": 0,
      "byteOffset": 96,
      "componentType": 5125,
      "count": 36,
      "type": "SCALAR"
    }
  ],
  "asset": {
    "extras": {
      "author": "ccy131006 (https://sketchfab.com/ccy131006)",
      "license": "CC-BY-4.0 (http://creativecommons.org/licenses/by/4.0/)",
      "source": "https://sketchfab.com/3d-models/orange-arrow-4a0d45186e1d4ba99bd3eacbd3b7c30d",
      "title": "Orange Arrow"
    },
    "generator": "Sketchfab-10.50.0",
    "version": "2.0"
  },
  "bufferViews": [
    {
      "buffer": 0,
      "byteLength": 240,
      "name": "floatBufferViews",
      "target": 34963
    },
    {
      "buffer": 0,
      "byteLength": 1104,
      "byteOffset": 240,
      "byteStride": 8,
      "name": "floatBufferViews",
      "target": 34962
    },
    {
      "buffer": 0,
      "byteLength": 1104,
      "byteOffset": 1344,
      "byteStride": 12,
      "name": "floatBufferViews",
      "target": 34962
    }
  ],
  "buffers": [
    {
      "byteLength": 2448,
      "uri": "scene.bin"
    }
  ],
  "extensionsRequired": [
    "KHR_materials_pbrSpecularGlossiness"
  ],
  "extensionsUsed": [
    "KHR_materials_pbrSpecularGlossiness"
  ],
  "images": [
    {
      "uri": "textures/material_diffuse.png"
    },
    {
      "uri": "textures/material_specularGlossiness.png"
    },
    {
      "uri": "textures/material_1_diffuse.png"
    },
    {
      "uri": "textures/material_1_specularGlossiness.png"
    }
  ],
  "materials": [
    {
      "alphaMode": "MASK",
      "doubleSided": true,
      "extensions": {
        "KHR_materials_pbrSpecularGlossiness": {
          "diffuseFactor": [
            1.0,
            1.0,
            1.0,
            1.0
          ],
          "diffuseTexture": {
            "index": 0
          },
          "glossinessFactor": 1.0,
          "specularFactor": [
            1.0,
            1.0,
            1.0
          ],
          "specularGlossinessTexture": {
            "index": 1
          }
        }
      },
      "name": "material"
    },
    {
      "alphaMode": "MASK",
      "doubleSided": true,
      "extensions": {
        "KHR_materials_pbrSpecularGlossiness": {
          "diffuseFactor": [
            1.0,
            1.0,
            1.0,
            1.0
          ],
          "diffuseTexture": {
            "index": 2
          },
          "glossinessFactor": 1.0,
          "specularFactor": [
            1.0,
            1.0,
            1.0
          ],
          "specularGlossinessTexture": {
            "index": 3
          }
        }
      },
      "name": "material_1"
    }
  ],
  "meshes": [
    {
      "name": "Object_0",
      "primitives": [
        {
          "attributes": {
            "NORMAL": 1,
            "POSITION": 0,
            "TEXCOORD_0": 2,
            "TEXCOORD_1": 3,
            "TEXCOORD_2": 4
          },
          "indices": 5,
          "material": 0,
          "mode": 4
        }
      ]
    },
    {
      "name": "Object_1",
      "primitives": [
        {
          "attributes": {
            "NORMAL": 7,
            "POSITION": 6,
            "TEXCOORD_0": 8,
            "TEXCOORD_1": 9,
            "TEXCOORD_2": 10
          },
          "indices": 11,
          "material": 1,
          "mode": 4
        }
      ]
    }
  ],
  "nodes": [
    {
      "children": [
        1
      ],
      "matrix": [
        1.0,
        0.0,
        0.0,
        0.0,
        0.0,
        2.220446049250313e-16,
        -1.0,
        0.0,
        0.0,
        1.0,
        2.220446049250313e-16,
        0.0,
        0.0,
        0.0,
        0.0,
        1.0
      ],
      "name": "Sketchfab_model"
    },
    {
      "children": [
        2
      ],
      "name": "root"
    },
    {
      "children": [
        3
      ],
      "matrix": [
        1.0,
        0.0,
        0.0,
        0.0,
        0.0,
        2.220446049250313e-16,
        1.0,
        0.0,
        0.0,
        -1.0,
        2.220446049250313e-16,
        0.0,
        0.0,
        0.0,
        0.0,
        1.0
      ],
      "name": "GLTF_SceneRootNode"
    },
    {
      "children": [
        4
      ],
      "name": "root_3"
    },
    {
      "children": [
        5,
        7
      ],
      "matrix": [
        0.0009681299735103574,
        -1.6454451996817157e-05,
        -0.00024990691780057414,
        0.0,
        -1.867099793731067e-12,
        -0.0009978396968557985,
        6.570007636979198e-05,
        0.0,
        -0.0002504481191134569,
        -6.360621711251907e-05,
        -0.0009660385858926315,
        0.0,
        0.06411483138799667,
        0.016282731667160988,
        0.5033068656921387,
        1.0
      ],
      "name": "node_id6_2"
    },
    {
      "children": [
        6
      ],
      "matrix": [
        342.72705078125,
        0.0,
        0.0,
        0.0,
        0.0,
        342.72705078125,
        0.0,
        0.0,
        0.0,
        0.0,
        342.72705078125,
        0.0,
        -84.63639068603516,
        -0.00023913374752737582,
        256.0004577636719,
        1.0
      ],
      "name": "_0"
    },
    {
      "mesh": 0,
      "name": "Object_6"
    },
    {
      "children": [
        8
      ],
      "matrix": [
        342.72705078125,
        0.0,
        0.0,
        0.0,
        0.0,
        342.72705078125,
        0.0,
        0.0,
        0.0,
        0.0,
        342.72705078125,
        0.0,
        -84.63639068603516,
        -0.00023913374752737582,
        256.0004577636719,
        1.0
      ],
      "name": "_1"
    },
    {
      "mesh": 1,
      "name": "Object_8"
    }
  ],
  "samplers": [
    {
      "magFilter": 9729,
      "minFilter": 9987,
      "wrapS": 10497,
      "wrapT": 10497
    }
  ],
  "scene": 0,
  "scenes": [
    {
      "name": "Sketchfab_Scene",
      "nodes": [
        0
      ]
    }
  ],
  "textures": [
    {
      "sampler": 0,
      "source": 0
    },
    {
      "sampler": 0,
      "source": 1
    },
    {
      "sampler": 0,
      "source": 2
    },
    {
      "sampler": 0,
      "source": 3
    }
  ]
}
