{
    "asset": {
        "copyright": "2020 (c) Adobe Inc.",
        "generator": "Adobe Dimension - 695fff5264e3b00eaca24d3119e0b5e4c864ae29",
        "version": "2.0"
    },
    "accessors": [
        {
            "bufferView": 0,
            "componentType": 5126,
            "count": 9474,
            "type": "VEC3",
            "max": [
                0.9995213150978088,
                0.11139554530382157,
                1.5477008819580079
            ],
            "min": [
                -1.0004786252975464,
                -0.10860444605350495,
                0.0
            ]
        },
        {
            "bufferView": 1,
            "componentType": 5126,
            "count": 9474,
            "type": "VEC3"
        },
        {
            "bufferView": 2,
            "componentType": 5126,
            "count": 9474,
            "type": "VEC2"
        },
        {
            "bufferView": 3,
            "componentType": 5125,
            "count": 9474,
            "type": "SCALAR",
            "max": [
                9473.0
            ],
            "min": [
                0.0
            ]
        }
    ],
    "bufferViews": [
        {
            "buffer": 0,
            "byteOffset": 0,
            "byteLength": 113688,
            "target": 34962
        },
        {
            "buffer": 0,
            "byteOffset": 113688,
            "byteLength": 113688,
            "target": 34962
        },
        {
            "buffer": 0,
            "byteOffset": 227376,
            "byteLength": 75792,
            "target": 34962
        },
        {
            "buffer": 0,
            "byteOffset": 303168,
            "byteLength": 37896,
            "target": 34963
        }
    ],
    "buffers": [
        {
            "byteLength": 341064,
            "uri": "인센스_binary.bin"
        }
    ],
    "cameras": [
        {
            "perspective": {
                "znear": 0.00005076919114799239,
                "yfov": 0.6024156808853149,
                "zfar": 2.7923054695129396,
                "aspectRatio": 1.3333333730697632
            },
            "type": "perspective",
            "name": "render_camera"
        }
    ],
    "images": [
        {
            "name": "basecolor_image_texture",
            "uri": "인센스_images/basecolor_image_texture.jpg",
            "mimeType": "image/jpeg"
        },
        {
            "name": "roughness_image_texture",
            "uri": "인센스_images/roughness_image_texture.png",
            "mimeType": "image/png"
        },
        {
            "name": "normal_image_texture",
            "uri": "인센스_images/normal_image_texture.png",
            "mimeType": "image/png"
        }
    ],
    "materials": [
        {
            "pbrMetallicRoughness": {
                "baseColorTexture": {
                    "index": 0
                },
                "metallicFactor": 0.0,
                "metallicRoughnessTexture": {
                    "index": 1
                }
            },
            "normalTexture": {
                "index": 2
            },
            "name": "목재 마루바닥",
            "doubleSided": true
        }
    ],
    "meshes": [
        {
            "name": "body",
            "primitives": [
                {
                    "attributes": {
                        "POSITION": 0,
                        "NORMAL": 1,
                        "TEXCOORD_0": 2
                    },
                    "indices": 3,
                    "material": 0
                }
            ]
        }
    ],
    "nodes": [
        {
            "translation": [
                0.5004785656929016,
                0.2938503324985504,
                -0.1638503223657608
            ],
            "rotation": [
                -0.12059047073125839,
                0.379409521818161,
                0.04995020851492882,
                0.9159756302833557
            ],
            "scale": [
                1.0,
                1.0,
                0.9999999403953552
            ],
            "camera": 0,
            "name": "render_camera_n3d"
        },
        {
            "translation": [
                0.00047866906970739365,
                8.523463890242056e-8,
                0.0013955688336864114
            ],
            "rotation": [
                -0.7071067690849304,
                -6.181724643283815e-8,
                -3.1819984862481054e-15,
                0.7071068286895752
            ],
            "scale": [
                1.0,
                0.9999997019767761,
                0.9999997019767761
            ],
            "mesh": 0,
            "name": "body"
        }
    ],
    "samplers": [
        {},
        {},
        {}
    ],
    "scenes": [
        {
            "nodes": [
                0,
                1
            ],
            "name": "scene"
        }
    ],
    "textures": [
        {
            "name": "basecolor_image_texture",
            "sampler": 0,
            "source": 0
        },
        {
            "name": "roughness_image_texture",
            "sampler": 1,
            "source": 1
        },
        {
            "name": "normal_image_texture",
            "sampler": 2,
            "source": 2
        }
    ],
    "scene": 0
}