{
    "asset": {
        "copyright": "2020 (c) Adobe Inc.",
        "generator": "Adobe Dimension - 695fff5264e3b00eaca24d3119e0b5e4c864ae29",
        "version": "2.0"
    },
    "accessors": [
        {
            "bufferView": 0,
            "componentType": 5126,
            "count": 8062,
            "type": "VEC3",
            "max": [
                0.06051184982061386,
                0.02734111063182354,
                0.060555025935173038
            ],
            "min": [
                -0.06038555130362511,
                0.00012846999743487686,
                -0.06055500730872154
            ]
        },
        {
            "bufferView": 1,
            "componentType": 5126,
            "count": 8062,
            "type": "VEC3"
        },
        {
            "bufferView": 2,
            "componentType": 5126,
            "count": 8062,
            "type": "VEC2"
        },
        {
            "bufferView": 3,
            "componentType": 5125,
            "count": 44784,
            "type": "SCALAR",
            "max": [
                8061.0
            ],
            "min": [
                0.0
            ]
        },
        {
            "bufferView": 4,
            "componentType": 5126,
            "count": 13257,
            "type": "VEC3",
            "max": [
                0.018361320719122888,
                0.047758057713508609,
                0.06309875845909119
            ],
            "min": [
                -0.10809317976236344,
                0.00024033000227063894,
                -0.06309875845909119
            ]
        },
        {
            "bufferView": 5,
            "componentType": 5126,
            "count": 13257,
            "type": "VEC3"
        },
        {
            "bufferView": 6,
            "componentType": 5126,
            "count": 13257,
            "type": "VEC2"
        },
        {
            "bufferView": 7,
            "componentType": 5125,
            "count": 74712,
            "type": "SCALAR",
            "max": [
                13256.0
            ],
            "min": [
                0.0
            ]
        }
    ],
    "bufferViews": [
        {
            "buffer": 0,
            "byteOffset": 0,
            "byteLength": 96744,
            "target": 34962
        },
        {
            "buffer": 0,
            "byteOffset": 96744,
            "byteLength": 96744,
            "target": 34962
        },
        {
            "buffer": 0,
            "byteOffset": 193488,
            "byteLength": 64496,
            "target": 34962
        },
        {
            "buffer": 0,
            "byteOffset": 257984,
            "byteLength": 179136,
            "target": 34963
        },
        {
            "buffer": 0,
            "byteOffset": 437120,
            "byteLength": 159084,
            "target": 34962
        },
        {
            "buffer": 0,
            "byteOffset": 596204,
            "byteLength": 159084,
            "target": 34962
        },
        {
            "buffer": 0,
            "byteOffset": 755288,
            "byteLength": 106056,
            "target": 34962
        },
        {
            "buffer": 0,
            "byteOffset": 861344,
            "byteLength": 298848,
            "target": 34963
        }
    ],
    "buffers": [
        {
            "byteLength": 1160192,
            "uri": "PaperBox_Open_binary.bin"
        }
    ],
    "cameras": [
        {
            "perspective": {
                "znear": 0.000010000000656873454,
                "yfov": 0.6024156808853149,
                "zfar": 2.0,
                "aspectRatio": 1.3333333730697632
            },
            "type": "perspective",
            "name": "render_camera"
        }
    ],
    "images": [
        {
            "name": "basecolor_image_texture",
            "uri": "PaperBox_Open_images/basecolor_image_texture.jpg",
            "mimeType": "image/jpeg"
        },
        {
            "name": "normal_image_texture",
            "uri": "PaperBox_Open_images/normal_image_texture.png",
            "mimeType": "image/png"
        }
    ],
    "materials": [
        {
            "pbrMetallicRoughness": {
                "baseColorTexture": {
                    "index": 0
                },
                "metallicFactor": 0.0,
                "roughnessFactor": 0.800000011920929
            },
            "normalTexture": {
                "index": 1
            },
            "name": "마분지",
            "doubleSided": true
        }
    ],
    "meshes": [
        {
            "name": "-EC-83-81-EC-9E-90",
            "primitives": [
                {
                    "attributes": {
                        "TEXCOORD_0": 2,
                        "NORMAL": 1,
                        "POSITION": 0
                    },
                    "indices": 3,
                    "material": 0
                }
            ]
        },
        {
            "name": "-EB-9A-9C-EA-BB-91",
            "primitives": [
                {
                    "attributes": {
                        "POSITION": 4,
                        "NORMAL": 5,
                        "TEXCOORD_0": 6
                    },
                    "indices": 7,
                    "material": 0
                }
            ]
        }
    ],
    "nodes": [
        {
            "translation": [
                0.5237906575202942,
                0.2998715043067932,
                0.5
            ],
            "rotation": [
                -0.12059047073125839,
                0.379409521818161,
                0.04995020851492882,
                0.9159756302833557
            ],
            "scale": [
                1.0,
                1.0,
                0.9999999403953552
            ],
            "camera": 0,
            "name": "render_camera_n3d"
        },
        {
            "children": [
                2,
                3
            ],
            "translation": [
                0.023790666833519937,
                -0.00012846999743487686,
                0.0
            ],
            "name": "뚜껑이 열린 상자"
        },
        {
            "mesh": 0,
            "name": "상자"
        },
        {
            "mesh": 1,
            "name": "뚜껑"
        }
    ],
    "samplers": [
        {},
        {}
    ],
    "scenes": [
        {
            "nodes": [
                0,
                1
            ],
            "name": "scene"
        }
    ],
    "textures": [
        {
            "name": "basecolor_image_texture",
            "sampler": 0,
            "source": 0
        },
        {
            "name": "normal_image_texture",
            "sampler": 1,
            "source": 1
        }
    ],
    "scene": 0
}