{
    "asset": {
        "copyright": "2021 (c) Adobe Inc.",
        "generator": "Adobe Substance 3D Stager - 67fda7961d26c28a731190f8385261e94aa65901",
        "version": "2.0"
    },
    "accessors": [
        {
            "bufferView": 0,
            "componentType": 5126,
            "count": 2312,
            "type": "VEC3",
            "max": [
                0.31852543354034426,
                0.8478789925575256,
                0.31852543354034426
            ],
            "min": [
                -0.31852543354034426,
                0.0017111798515543342,
                -0.31852543354034426
            ]
        },
        {
            "bufferView": 1,
            "componentType": 5126,
            "count": 2312,
            "type": "VEC3"
        },
        {
            "bufferView": 2,
            "componentType": 5126,
            "count": 2312,
            "type": "VEC4"
        },
        {
            "bufferView": 3,
            "componentType": 5126,
            "count": 2312,
            "type": "VEC2"
        },
        {
            "bufferView": 4,
            "componentType": 5125,
            "count": 8148,
            "type": "SCALAR",
            "max": [
                2311.0
            ],
            "min": [
                0.0
            ]
        }
    ],
    "bufferViews": [
        {
            "buffer": 0,
            "byteOffset": 0,
            "byteLength": 27744,
            "target": 34962
        },
        {
            "buffer": 0,
            "byteOffset": 27744,
            "byteLength": 27744,
            "target": 34962
        },
        {
            "buffer": 0,
            "byteOffset": 55488,
            "byteLength": 36992,
            "target": 34962
        },
        {
            "buffer": 0,
            "byteOffset": 92480,
            "byteLength": 18496,
            "target": 34962
        },
        {
            "buffer": 0,
            "byteOffset": 110976,
            "byteLength": 32592,
            "target": 34963
        }
    ],
    "buffers": [
        {
            "byteLength": 143568,
            "uri": "Table_terazzo_binary.bin"
        }
    ],
    "cameras": [
        {
            "perspective": {
                "znear": 0.000024719767679926009,
                "yfov": 0.527414858341217,
                "zfar": 2.0,
                "aspectRatio": 1.3333333730697632
            },
            "type": "perspective",
            "name": "working_cam"
        }
    ],
    "images": [
        {
            "name": "base_color_image_texture",
            "uri": "Table_terazzo_images/base_color_image_texture.jpg",
            "mimeType": "image/jpeg"
        },
        {
            "name": "roughness_image_texture",
            "uri": "Table_terazzo_images/roughness_image_texture.png",
            "mimeType": "image/png"
        },
        {
            "name": "normal_image_texture",
            "uri": "Table_terazzo_images/normal_image_texture.png",
            "mimeType": "image/png"
        }
    ],
    "materials": [
        {
            "pbrMetallicRoughness": {
                "baseColorTexture": {
                    "index": 0
                },
                "metallicFactor": 0.0,
                "metallicRoughnessTexture": {
                    "index": 1
                }
            },
            "normalTexture": {
                "index": 2
            },
            "name": "Terrazzo",
            "doubleSided": true
        }
    ],
    "meshes": [
        {
            "name": "-EC-82-AC-EC-9D-B4-EB-93-9C -ED-85-8C-EC-9D-B4-EB-B8-94",
            "primitives": [
                {
                    "attributes": {
                        "POSITION": 0,
                        "NORMAL": 1,
                        "TANGENT": 2,
                        "TEXCOORD_0": 3
                    },
                    "indices": 4,
                    "material": 0
                }
            ]
        }
    ],
    "nodes": [
        {
            "translation": [
                0.550000011920929,
                0.3199999928474426,
                0.550000011920929
            ],
            "rotation": [
                -0.12059047073125839,
                0.379409521818161,
                0.04995020851492882,
                0.9159756302833557
            ],
            "scale": [
                1.0,
                1.0,
                0.9999999403953552
            ],
            "camera": 0,
            "name": "working_cam_n3d"
        },
        {
            "translation": [
                0.0,
                -0.0017111798515543342,
                0.0
            ],
            "mesh": 0,
            "name": "사이드 테이블"
        }
    ],
    "samplers": [
        {}
    ],
    "scenes": [
        {
            "nodes": [
                1
            ],
            "name": "scene"
        }
    ],
    "textures": [
        {
            "name": "base_color_image_texture",
            "sampler": 0,
            "source": 0
        },
        {
            "name": "roughness_image_texture",
            "sampler": 0,
            "source": 1
        },
        {
            "name": "normal_image_texture",
            "sampler": 0,
            "source": 2
        }
    ],
    "scene": 0
}