{
    "asset": {
        "copyright": "2020 (c) Adobe Inc.",
        "generator": "Adobe Dimension - 695fff5264e3b00eaca24d3119e0b5e4c864ae29",
        "version": "2.0"
    },
    "accessors": [
        {
            "bufferView": 0,
            "componentType": 5126,
            "count": 312,
            "type": "VEC3",
            "max": [
                3.0,
                0.19999998807907105,
                2.450000047683716
            ],
            "min": [
                -0.5,
                -0.8299999833106995,
                0.0
            ]
        },
        {
            "bufferView": 1,
            "componentType": 5126,
            "count": 312,
            "type": "VEC3"
        },
        {
            "bufferView": 2,
            "componentType": 5126,
            "count": 312,
            "type": "VEC2"
        },
        {
            "bufferView": 3,
            "componentType": 5125,
            "count": 312,
            "type": "SCALAR",
            "max": [
                311.0
            ],
            "min": [
                0.0
            ]
        }
    ],
    "bufferViews": [
        {
            "buffer": 0,
            "byteOffset": 0,
            "byteLength": 3744,
            "target": 34962
        },
        {
            "buffer": 0,
            "byteOffset": 3744,
            "byteLength": 3744,
            "target": 34962
        },
        {
            "buffer": 0,
            "byteOffset": 7488,
            "byteLength": 2496,
            "target": 34962
        },
        {
            "buffer": 0,
            "byteOffset": 9984,
            "byteLength": 1248,
            "target": 34963
        }
    ],
    "buffers": [
        {
            "byteLength": 11232,
            "uri": "종이수납함 나무_binary.bin"
        }
    ],
    "cameras": [
        {
            "perspective": {
                "znear": 0.00008789401908870786,
                "yfov": 0.6024156808853149,
                "zfar": 4.834171295166016,
                "aspectRatio": 1.3333333730697632
            },
            "type": "perspective",
            "name": "render_camera"
        }
    ],
    "images": [
        {
            "name": "basecolor_image_texture",
            "uri": "종이수납함 나무_images/basecolor_image_texture.jpg",
            "mimeType": "image/jpeg"
        },
        {
            "name": "ambientocclusion_image_texture_roughness_image_texture",
            "uri": "종이수납함 나무_images/ambientocclusion_image_texture_roughness_image_texture.png",
            "mimeType": "image/png"
        },
        {
            "name": "normal_image_texture",
            "uri": "종이수납함 나무_images/normal_image_texture.png",
            "mimeType": "image/png"
        }
    ],
    "materials": [
        {
            "pbrMetallicRoughness": {
                "baseColorTexture": {
                    "index": 0
                },
                "metallicFactor": 0.0,
                "metallicRoughnessTexture": {
                    "index": 1
                }
            },
            "normalTexture": {
                "index": 2
            },
            "occlusionTexture": {
                "index": 1
            },
            "name": "초콜릿 브라운 너도밤나무 2",
            "doubleSided": true
        }
    ],
    "meshes": [
        {
            "name": "body",
            "primitives": [
                {
                    "attributes": {
                        "POSITION": 0,
                        "NORMAL": 1,
                        "TEXCOORD_0": 2
                    },
                    "indices": 3,
                    "material": 0
                }
            ]
        }
    ],
    "nodes": [
        {
            "translation": [
                -0.749999463558197,
                0.30500030517578127,
                -0.2099994570016861
            ],
            "rotation": [
                -0.12059047073125839,
                0.379409521818161,
                0.04995020851492882,
                0.9159756302833557
            ],
            "scale": [
                1.0,
                1.0,
                0.9999999403953552
            ],
            "camera": 0,
            "name": "render_camera_n3d"
        },
        {
            "translation": [
                -1.249999761581421,
                9.119510480104509e-8,
                -0.315000057220459
            ],
            "rotation": [
                -0.7071067690849304,
                -6.181723932741079e-8,
                1.8422972955528138e-15,
                0.7071068286895752
            ],
            "scale": [
                0.9999998807907105,
                0.9999998807907105,
                0.9999998807907105
            ],
            "mesh": 0,
            "name": "body"
        }
    ],
    "samplers": [
        {},
        {},
        {}
    ],
    "scenes": [
        {
            "nodes": [
                0,
                1
            ],
            "name": "scene"
        }
    ],
    "textures": [
        {
            "name": "basecolor_image_texture",
            "sampler": 0,
            "source": 0
        },
        {
            "name": "ambientocclusion_image_texture_roughness_image_texture",
            "sampler": 1,
            "source": 1
        },
        {
            "name": "normal_image_texture",
            "sampler": 2,
            "source": 2
        }
    ],
    "scene": 0
}